{
  "accessors": [
    {
      "bufferView": 2,
      "componentType": 5126,
      "count": 12018,
      "max": [
        3.1215200424194336,
        0.6299999952316284,
        2.7041099071502686
      ],
      "min": [
        -4.0817999839782715,
        -3.6073899269104004,
        -2.7041099071502686
      ],
      "type": "VEC3"
    },
    {
      "bufferView": 2,
      "byteOffset": 144216,
      "componentType": 5126,
      "count": 12018,
      "max": [
        1.0,
        1.0,
        1.0
      ],
      "min": [
        -1.0,
        -1.0,
        -1.0
      ],
      "type": "VEC3"
    },
    {
      "bufferView": 1,
      "componentType": 5126,
      "count": 12018,
      "max": [
        1.0,
        1.0
      ],
      "min": [
        0.0,
        0.0
      ],
      "type": "VEC2"
    },
    {
      "bufferView": 0,
      "componentType": 5125,
      "count": 18252,
      "type": "SCALAR"
    },
    {
      "bufferView": 2,
      "byteOffset": 288432,
      "componentType": 5126,
      "count": 1250,
      "max": [
        0.035679999738931656,
        0.625,
        1.2424900531768799
      ],
      "min": [
        -0.035679999738931656,
        -0.625,
        -1.2575099468231201
      ],
      "type": "VEC3"
    },
    {
      "bufferView": 2,
      "byteOffset": 303432,
      "componentType": 5126,
      "count": 1250,
      "max": [
        1.0,
        1.0,
        1.0
      ],
      "min": [
        -1.0,
        -1.0,
        -1.0
      ],
      "type": "VEC3"
    },
    {
      "bufferView": 3,
      "componentType": 5126,
      "count": 1250,
      "max": [
        1.0,
        1.0,
        0.6361199617385864,
        1.0
      ],
      "min": [
        -1.0,
        -1.0,
        -1.0,
        1.0
      ],
      "type": "VEC4"
    },
    {
      "bufferView": 1,
      "byteOffset": 96144,
      "componentType": 5126,
      "count": 1250,
      "max": [
        8.5,
        8.5
      ],
      "min": [
        -7.5,
        -7.5
      ],
      "type": "VEC2"
    },
    {
      "bufferView": 0,
      "byteOffset": 73008,
      "componentType": 5125,
      "count": 2580,
      "type": "SCALAR"
    }
  ],
  "asset": {
    "extras": {
      "author": "qwertderstar (https://sketchfab.com/qwertderstar)",
      "license": "CC-BY-4.0 (http://creativecommons.org/licenses/by/4.0/)",
      "source": "https://sketchfab.com/3d-models/door-5507795f3c234c3d853aba1bbdc70e84",
      "title": "Door"
    },
    "generator": "Sketchfab-12.68.0",
    "version": "2.0"
  },
  "bufferViews": [
    {
      "buffer": 0,
      "byteLength": 83328,
      "name": "floatBufferViews",
      "target": 34963
    },
    {
      "buffer": 0,
      "byteLength": 106144,
      "byteOffset": 83328,
      "byteStride": 8,
      "name": "floatBufferViews",
      "target": 34962
    },
    {
      "buffer": 0,
      "byteLength": 318432,
      "byteOffset": 189472,
      "byteStride": 12,
      "name": "floatBufferViews",
      "target": 34962
    },
    {
      "buffer": 0,
      "byteLength": 20000,
      "byteOffset": 507904,
      "byteStride": 16,
      "name": "floatBufferViews",
      "target": 34962
    }
  ],
  "buffers": [
    {
      "byteLength": 527904,
      "uri": "scene.bin"
    }
  ],
  "extensionsRequired": [
    "KHR_materials_pbrSpecularGlossiness"
  ],
  "extensionsUsed": [
    "KHR_materials_pbrSpecularGlossiness"
  ],
  "images": [
    {
      "uri": "textures/Material.001_normal.png"
    }
  ],
  "materials": [
    {
      "extensions": {
        "KHR_materials_pbrSpecularGlossiness": {
          "diffuseFactor": [
            0.5048466313836033,
            0.5048466313836033,
            0.5048466313836033,
            1.0
          ],
          "glossinessFactor": 0.6669325097206911,
          "specularFactor": [
            0.5416564473345236,
            0.5416564473345236,
            0.5416564473345236
          ]
        }
      },
      "name": "Material.001",
      "normalTexture": {
        "index": 0,
        "scale": 0.204233134451088
      }
    },
    {
      "doubleSided": true,
      "extensions": {
        "KHR_materials_pbrSpecularGlossiness": {
          "diffuseFactor": [
            0.8228913664472016,
            0.8146844309422079,
            0.09761911787218726,
            1.0
          ],
          "glossinessFactor": 0.8080368041992188,
          "specularFactor": [
            1.0,
            1.0,
            1.0
          ]
        }
      },
      "name": "Material"
    }
  ],
  "meshes": [
    {
      "name": "doorHandle_0",
      "primitives": [
        {
          "attributes": {
            "NORMAL": 1,
            "POSITION": 0,
            "TEXCOORD_0": 2
          },
          "indices": 3,
          "material": 1,
          "mode": 4
        }
      ]
    },
    {
      "name": "Door_0",
      "primitives": [
        {
          "attributes": {
            "NORMAL": 5,
            "POSITION": 4,
            "TANGENT": 6,
            "TEXCOORD_0": 7
          },
          "indices": 8,
          "material": 0,
          "mode": 4
        }
      ]
    }
  ],
  "nodes": [
    {
      "children": [
        1
      ],
      "matrix": [
        1.0,
        0.0,
        0.0,
        0.0,
        0.0,
        2.220446049250313e-16,
        -1.0,
        0.0,
        0.0,
        1.0,
        2.220446049250313e-16,
        0.0,
        0.0,
        0.0,
        0.0,
        1.0
      ],
      "name": "Sketchfab_model"
    },
    {
      "children": [
        2,
        4,
        6
      ],
      "name": "Root"
    },
    {
      "children": [
        3
      ],
      "matrix": [
        0.05500000000000001,
        0.0,
        0.0,
        0.0,
        0.0,
        0.05500000000000001,
        0.0,
        0.0,
        0.0,
        0.0,
        0.05500000000000001,
        0.0,
        -0.0005300000000000001,
        0.5537500000000001,
        1.10923,
        1.0
      ],
      "name": "doorHandle"
    },
    {
      "mesh": 0,
      "name": "doorHandle_0"
    },
    {
      "children": [
        5
      ],
      "matrix": [
        1.0,
        0.0,
        0.0,
        0.0,
        0.0,
        1.0,
        0.0,
        0.0,
        0.0,
        0.0,
        1.0,
        0.0,
        -0.026940000000000006,
        -1.0000000000000004e-05,
        1.25751,
        1.0
      ],
      "name": "Door"
    },
    {
      "mesh": 1,
      "name": "Door_0"
    },
    {
      "children": [
        7
      ],
      "matrix": [
        0.74743,
        0.04658000000000001,
        -0.6627000000000002,
        0.0,
        -0.22220000000000004,
        0.9576100000000001,
        -0.18330000000000002,
        0.0,
        0.6260700000000001,
        0.28426,
        0.7261000000000001,
        0.0,
        0.0,
        0.0,
        0.0,
        1.0
      ],
      "name": "Sun"
    },
    {
      "name": "Sun"
    }
  ],
  "samplers": [
    {
      "magFilter": 9729,
      "minFilter": 9987,
      "wrapS": 10497,
      "wrapT": 10497
    }
  ],
  "scene": 0,
  "scenes": [
    {
      "name": "Sketchfab_Scene",
      "nodes": [
        0
      ]
    }
  ],
  "textures": [
    {
      "sampler": 0,
      "source": 0
    }
  ]
}
