{
  "accessors": [
    {
      "bufferView": 2,
      "componentType": 5126,
      "count": 884,
      "max": [
        0.34584400057792664,
        5.135169982910156,
        8.27230453491211
      ],
      "min": [
        -0.34584400057792664,
        4.443483829498291,
        8.144275665283203
      ],
      "type": "VEC3"
    },
    {
      "bufferView": 2,
      "byteOffset": 10608,
      "componentType": 5126,
      "count": 884,
      "max": [
        0.9724391102790833,
        0.972440779209137,
        1.0
      ],
      "min": [
        -0.9724388718605042,
        -0.9724370241165161,
        -1.0
      ],
      "type": "VEC3"
    },
    {
      "bufferView": 1,
      "componentType": 5126,
      "count": 884,
      "max": [
        0.65625,
        1.0
      ],
      "min": [
        0.375,
        0.0
      ],
      "type": "VEC2"
    },
    {
      "bufferView": 0,
      "componentType": 5125,
      "count": 4560,
      "type": "SCALAR"
    },
    {
      "bufferView": 2,
      "byteOffset": 21216,
      "componentType": 5126,
      "count": 5184,
      "max": [
        2.5219950675964355,
        6.2648138999938965,
        8.183390617370605
      ],
      "min": [
        -2.5219950675964355,
        -2.3711531162261963,
        -6.000000212225132e-06
      ],
      "type": "VEC3"
    },
    {
      "bufferView": 2,
      "byteOffset": 83424,
      "componentType": 5126,
      "count": 5184,
      "max": [
        1.0,
        1.0,
        1.0
      ],
      "min": [
        -1.0,
        -1.0,
        -1.0
      ],
      "type": "VEC3"
    },
    {
      "bufferView": 1,
      "byteOffset": 7072,
      "componentType": 5126,
      "count": 5184,
      "max": [
        1.4585930109024048,
        2.017338991165161
      ],
      "min": [
        -0.1839590072631836,
        0.0
      ],
      "type": "VEC2"
    },
    {
      "bufferView": 0,
      "byteOffset": 18240,
      "componentType": 5125,
      "count": 22308,
      "type": "SCALAR"
    },
    {
      "bufferView": 2,
      "byteOffset": 145632,
      "componentType": 5126,
      "count": 2050,
      "max": [
        1.9422780275344849,
        3.4050838947296143,
        8.633540153503418
      ],
      "min": [
        -1.942391037940979,
        -2.233484983444214,
        3.8486790657043457
      ],
      "type": "VEC3"
    },
    {
      "bufferView": 2,
      "byteOffset": 170232,
      "componentType": 5126,
      "count": 2050,
      "max": [
        1.0,
        1.0,
        1.0
      ],
      "min": [
        -1.0,
        -0.9999985694885254,
        -1.0
      ],
      "type": "VEC3"
    },
    {
      "bufferView": 1,
      "byteOffset": 48544,
      "componentType": 5126,
      "count": 2050,
      "max": [
        1.0,
        1.0313529968261719
      ],
      "min": [
        -0.023872999474406242,
        -0.012977000325918198
      ],
      "type": "VEC2"
    },
    {
      "bufferView": 0,
      "byteOffset": 107472,
      "componentType": 5125,
      "count": 9048,
      "type": "SCALAR"
    }
  ],
  "asset": {
    "extras": {
      "author": "motaman (https://sketchfab.com/motaman)",
      "license": "CC-BY-4.0 (http://creativecommons.org/licenses/by/4.0/)",
      "source": "https://sketchfab.com/3d-models/toilet-c98c73d7b70e4635b8cc01705915aea6",
      "title": "toilet"
    },
    "generator": "Sketchfab-15.30.0",
    "version": "2.0"
  },
  "bufferViews": [
    {
      "buffer": 0,
      "byteLength": 143664,
      "name": "floatBufferViews",
      "target": 34963
    },
    {
      "buffer": 0,
      "byteLength": 64944,
      "byteOffset": 143664,
      "byteStride": 8,
      "name": "floatBufferViews",
      "target": 34962
    },
    {
      "buffer": 0,
      "byteLength": 194832,
      "byteOffset": 208608,
      "byteStride": 12,
      "name": "floatBufferViews",
      "target": 34962
    }
  ],
  "buffers": [
    {
      "byteLength": 403440,
      "uri": "scene.bin"
    }
  ],
  "extensionsRequired": [
    "KHR_materials_pbrSpecularGlossiness"
  ],
  "extensionsUsed": [
    "KHR_materials_pbrSpecularGlossiness"
  ],
  "materials": [
    {
      "doubleSided": true,
      "extensions": {
        "KHR_materials_pbrSpecularGlossiness": {
          "diffuseFactor": [
            1.0,
            1.0,
            1.0,
            1.0
          ],
          "glossinessFactor": 0.7299923780487805,
          "specularFactor": [
            0.7578125,
            0.7578125,
            0.7578125
          ]
        }
      },
      "name": "Ai_CeramicAi_CeramicSG"
    },
    {
      "doubleSided": true,
      "extensions": {
        "KHR_materials_pbrSpecularGlossiness": {
          "diffuseFactor": [
            0.9309814245047139,
            0.8953722614270216,
            0.7967660605752171,
            1.0
          ],
          "glossinessFactor": 0.5775533536585367,
          "specularFactor": [
            0.3126905487804878,
            0.3126905487804878,
            0.3126905487804878
          ]
        }
      },
      "name": "aiStandardSurface1SG"
    },
    {
      "doubleSided": true,
      "extensions": {
        "KHR_materials_pbrSpecularGlossiness": {
          "diffuseFactor": [
            0.1002182397306339,
            0.1002182397306339,
            0.1002182397306339,
            1.0
          ],
          "glossinessFactor": 0.8824314024390244,
          "specularFactor": [
            0.6602515243902439,
            0.6602515243902439,
            0.6602515243902439
          ]
        }
      },
      "name": "aiStandardSurface3SG"
    }
  ],
  "meshes": [
    {
      "name": "Object_0",
      "primitives": [
        {
          "attributes": {
            "NORMAL": 1,
            "POSITION": 0,
            "TEXCOORD_0": 2
          },
          "indices": 3,
          "material": 2,
          "mode": 4
        }
      ]
    },
    {
      "name": "Object_1",
      "primitives": [
        {
          "attributes": {
            "NORMAL": 5,
            "POSITION": 4,
            "TEXCOORD_0": 6
          },
          "indices": 7,
          "material": 0,
          "mode": 4
        }
      ]
    },
    {
      "name": "Object_2",
      "primitives": [
        {
          "attributes": {
            "NORMAL": 9,
            "POSITION": 8,
            "TEXCOORD_0": 10
          },
          "indices": 11,
          "material": 1,
          "mode": 4
        }
      ]
    }
  ],
  "nodes": [
    {
      "children": [
        1
      ],
      "matrix": [
        1.0,
        0.0,
        0.0,
        0.0,
        0.0,
        2.220446049250313e-16,
        -1.0,
        0.0,
        0.0,
        1.0,
        2.220446049250313e-16,
        0.0,
        0.0,
        0.0,
        0.0,
        1.0
      ],
      "name": "Sketchfab_model"
    },
    {
      "children": [
        2,
        3,
        4
      ],
      "name": "escusadohighres.obj.cleaner.materialmerger.gles"
    },
    {
      "mesh": 0,
      "name": "Object_2"
    },
    {
      "mesh": 1,
      "name": "Object_3"
    },
    {
      "mesh": 2,
      "name": "Object_4"
    }
  ],
  "scene": 0,
  "scenes": [
    {
      "name": "Sketchfab_Scene",
      "nodes": [
        0
      ]
    }
  ]
}
