{
  "accessors": [
    {
      "bufferView": 2,
      "componentType": 5126,
      "count": 11591,
      "max": [
        28.9058895111084,
        61.34870147705078,
        63.902252197265625
      ],
      "min": [
        -29.324630737304688,
        -0.8783116936683655,
        -76.40493774414063
      ],
      "type": "VEC3"
    },
    {
      "bufferView": 2,
      "byteOffset": 139092,
      "componentType": 5126,
      "count": 11591,
      "max": [
        0.9998603463172913,
        0.9999973177909851,
        0.9999848008155823
      ],
      "min": [
        -0.9998742341995239,
        -0.9999998211860657,
        -0.9999978542327881
      ],
      "type": "VEC3"
    },
    {
      "bufferView": 3,
      "componentType": 5126,
      "count": 11591,
      "max": [
        0.2493082731962204,
        0.999986469745636,
        0.9999973177909851,
        1.0
      ],
      "min": [
        -0.24205848574638367,
        -0.9999858736991882,
        -0.9999998211860657,
        1.0
      ],
      "type": "VEC4"
    },
    {
      "bufferView": 1,
      "componentType": 5126,
      "count": 11591,
      "max": [
        0.980146586894989,
        0.9458609819412231
      ],
      "min": [
        0.04362285137176514,
        0.05023282766342163
      ],
      "type": "VEC2"
    },
    {
      "bufferView": 0,
      "componentType": 5125,
      "count": 39600,
      "type": "SCALAR"
    }
  ],
  "asset": {
    "extras": {
      "author": "Pixel Life (https://sketchfab.com/pixellife)",
      "license": "CC-BY-4.0 (http://creativecommons.org/licenses/by/4.0/)",
      "source": "https://sketchfab.com/3d-models/firewood-pile-game-ready-asset-393e8b83dfdc455fa4f03dbd4f116e0c",
      "title": "Firewood Pile (game ready asset)"
    },
    "generator": "Sketchfab-15.55.0",
    "version": "2.0"
  },
  "bufferViews": [
    {
      "buffer": 0,
      "byteLength": 158400,
      "name": "floatBufferViews",
      "target": 34963
    },
    {
      "buffer": 0,
      "byteLength": 92728,
      "byteOffset": 158400,
      "byteStride": 8,
      "name": "floatBufferViews",
      "target": 34962
    },
    {
      "buffer": 0,
      "byteLength": 278184,
      "byteOffset": 251128,
      "byteStride": 12,
      "name": "floatBufferViews",
      "target": 34962
    },
    {
      "buffer": 0,
      "byteLength": 185456,
      "byteOffset": 529312,
      "byteStride": 16,
      "name": "floatBufferViews",
      "target": 34962
    }
  ],
  "buffers": [
    {
      "byteLength": 714768,
      "uri": "scene.bin"
    }
  ],
  "images": [
    {
      "uri": "textures/Firewood_baseColor.jpeg"
    },
    {
      "uri": "textures/Firewood_metallicRoughness.png"
    },
    {
      "uri": "textures/Firewood_normal.png"
    }
  ],
  "materials": [
    {
      "doubleSided": true,
      "name": "Firewood",
      "normalTexture": {
        "index": 2
      },
      "occlusionTexture": {
        "index": 1
      },
      "pbrMetallicRoughness": {
        "baseColorTexture": {
          "index": 0
        },
        "metallicRoughnessTexture": {
          "index": 1
        }
      }
    }
  ],
  "meshes": [
    {
      "name": "Cylinder.044_Firewood_0",
      "primitives": [
        {
          "attributes": {
            "NORMAL": 1,
            "POSITION": 0,
            "TANGENT": 2,
            "TEXCOORD_0": 3
          },
          "indices": 4,
          "material": 0,
          "mode": 4
        }
      ]
    }
  ],
  "nodes": [
    {
      "children": [
        1
      ],
      "matrix": [
        1.0,
        0.0,
        0.0,
        0.0,
        0.0,
        2.220446049250313e-16,
        -1.0,
        0.0,
        0.0,
        1.0,
        2.220446049250313e-16,
        0.0,
        0.0,
        0.0,
        0.0,
        1.0
      ],
      "name": "Sketchfab_model"
    },
    {
      "children": [
        2
      ],
      "matrix": [
        0.009999999776482582,
        0.0,
        0.0,
        0.0,
        0.0,
        0.0,
        0.009999999776482582,
        0.0,
        0.0,
        -0.009999999776482582,
        0.0,
        0.0,
        0.0,
        0.0,
        0.0,
        1.0
      ],
      "name": "8756cf8d99594548b2e551addc6f6ab2.fbx"
    },
    {
      "children": [
        3
      ],
      "name": "RootNode"
    },
    {
      "children": [
        4
      ],
      "name": "Cylinder.044"
    },
    {
      "mesh": 0,
      "name": "Cylinder.044_Firewood_0"
    }
  ],
  "samplers": [
    {
      "magFilter": 9729,
      "minFilter": 9987,
      "wrapS": 10497,
      "wrapT": 10497
    }
  ],
  "scene": 0,
  "scenes": [
    {
      "name": "Sketchfab_Scene",
      "nodes": [
        0
      ]
    }
  ],
  "textures": [
    {
      "sampler": 0,
      "source": 0
    },
    {
      "sampler": 0,
      "source": 1
    },
    {
      "sampler": 0,
      "source": 2
    }
  ]
}
