{
  "accessors": [
    {
      "bufferView": 2,
      "componentType": 5126,
      "count": 7234,
      "max": [
        7.356677532196045,
        9.947623252868652,
        2.125136137008667
      ],
      "min": [
        3.1064047813415527,
        0.03027934953570366,
        -2.125136137008667
      ],
      "type": "VEC3"
    },
    {
      "bufferView": 2,
      "byteOffset": 86808,
      "componentType": 5126,
      "count": 7234,
      "max": [
        0.9999986290931702,
        1.0,
        0.9999986290931702
      ],
      "min": [
        -0.9999986886978149,
        -1.0,
        -0.9999986290931702
      ],
      "type": "VEC3"
    },
    {
      "bufferView": 1,
      "componentType": 5126,
      "count": 7234,
      "max": [
        55.90234375,
        5.375
      ],
      "min": [
        0.0976562425494194,
        -0.375
      ],
      "type": "VEC2"
    },
    {
      "bufferView": 0,
      "componentType": 5125,
      "count": 43392,
      "type": "SCALAR"
    },
    {
      "bufferView": 2,
      "byteOffset": 173616,
      "componentType": 5126,
      "count": 2037,
      "max": [
        7.3172688484191895,
        8.05312728881836,
        2.085726261138916
      ],
      "min": [
        3.145814895629883,
        4.280637741088867,
        -2.0857272148132324
      ],
      "type": "VEC3"
    },
    {
      "bufferView": 2,
      "byteOffset": 198060,
      "componentType": 5126,
      "count": 2037,
      "max": [
        0.9999980926513672,
        1.0,
        0.999998152256012
      ],
      "min": [
        -0.9999980926513672,
        -1.0,
        -0.9999980926513672
      ],
      "type": "VEC3"
    },
    {
      "bufferView": 1,
      "byteOffset": 57872,
      "componentType": 5126,
      "count": 2037,
      "max": [
        0.9489424228668213,
        0.9579334855079651
      ],
      "min": [
        0.032425880432128906,
        0.1015254408121109
      ],
      "type": "VEC2"
    },
    {
      "bufferView": 0,
      "byteOffset": 173568,
      "componentType": 5125,
      "count": 11424,
      "type": "SCALAR"
    },
    {
      "bufferView": 2,
      "byteOffset": 222504,
      "componentType": 5126,
      "count": 1500,
      "max": [
        2.295684814453125,
        14.59507942199707,
        2.295684814453125
      ],
      "min": [
        -2.295684814453125,
        0.05268430709838867,
        -2.282318115234375
      ],
      "type": "VEC3"
    },
    {
      "bufferView": 2,
      "byteOffset": 240504,
      "componentType": 5126,
      "count": 1500,
      "max": [
        0.9999998211860657,
        0.30916109681129456,
        0.9999998211860657
      ],
      "min": [
        -0.9999997615814209,
        -1.0,
        -0.9998870491981506
      ],
      "type": "VEC3"
    },
    {
      "bufferView": 1,
      "byteOffset": 74168,
      "componentType": 5126,
      "count": 1500,
      "max": [
        0.828514814376831,
        0.8885729312896729
      ],
      "min": [
        0.21376477181911469,
        0.12344280630350113
      ],
      "type": "VEC2"
    },
    {
      "bufferView": 0,
      "byteOffset": 219264,
      "componentType": 5125,
      "count": 8052,
      "type": "SCALAR"
    },
    {
      "bufferView": 2,
      "byteOffset": 258504,
      "componentType": 5126,
      "count": 1833,
      "max": [
        0.927642822265625,
        18.89890480041504,
        0.927642822265625
      ],
      "min": [
        -0.9276466369628906,
        14.595077514648438,
        -0.9276504516601563
      ],
      "type": "VEC3"
    },
    {
      "bufferView": 2,
      "byteOffset": 280500,
      "componentType": 5126,
      "count": 1833,
      "max": [
        0.9999958872795105,
        1.0,
        0.9999958872795105
      ],
      "min": [
        -0.9999958872795105,
        -0.9975289702415466,
        -0.9999958276748657
      ],
      "type": "VEC3"
    },
    {
      "bufferView": 1,
      "byteOffset": 86168,
      "componentType": 5126,
      "count": 1833,
      "max": [
        0.698253870010376,
        0.8758462071418762
      ],
      "min": [
        0.3005506098270416,
        0.19867312908172607
      ],
      "type": "VEC2"
    },
    {
      "bufferView": 0,
      "byteOffset": 251472,
      "componentType": 5125,
      "count": 10080,
      "type": "SCALAR"
    },
    {
      "bufferView": 2,
      "byteOffset": 302496,
      "componentType": 5126,
      "count": 160,
      "max": [
        1.9194799661636353,
        7.800608158111572,
        -0.8553399443626404
      ],
      "min": [
        -2.132246494293213,
        1.8106465339660645,
        -2.31246280670166
      ],
      "type": "VEC3"
    },
    {
      "bufferView": 2,
      "byteOffset": 304416,
      "componentType": 5126,
      "count": 160,
      "max": [
        0.776054859161377,
        0.9989976286888123,
        0.8834434151649475
      ],
      "min": [
        -0.8832916617393494,
        -0.9999821782112122,
        -0.9999999403953552
      ],
      "type": "VEC3"
    },
    {
      "bufferView": 1,
      "byteOffset": 100832,
      "componentType": 5126,
      "count": 160,
      "max": [
        0.8771500587463379,
        0.9548601508140564
      ],
      "min": [
        0.11764496564865112,
        0.0388609804213047
      ],
      "type": "VEC2"
    },
    {
      "bufferView": 0,
      "byteOffset": 291792,
      "componentType": 5125,
      "count": 600,
      "type": "SCALAR"
    }
  ],
  "asset": {
    "extras": {
      "author": "JoeDev (https://sketchfab.com/JoeDev)",
      "license": "CC-BY-4.0 (http://creativecommons.org/licenses/by/4.0/)",
      "source": "https://sketchfab.com/3d-models/wine-bottle-and-glass-13027525814d4c4ea07d4e12549cb9ef",
      "title": "Wine Bottle and Glass"
    },
    "generator": "Sketchfab-15.8.0",
    "version": "2.0"
  },
  "bufferViews": [
    {
      "buffer": 0,
      "byteLength": 294192,
      "name": "floatBufferViews",
      "target": 34963
    },
    {
      "buffer": 0,
      "byteLength": 102112,
      "byteOffset": 294192,
      "byteStride": 8,
      "name": "floatBufferViews",
      "target": 34962
    },
    {
      "buffer": 0,
      "byteLength": 306336,
      "byteOffset": 396304,
      "byteStride": 12,
      "name": "floatBufferViews",
      "target": 34962
    }
  ],
  "buffers": [
    {
      "byteLength": 702640,
      "uri": "scene.bin"
    }
  ],
  "extensionsRequired": [
    "KHR_materials_pbrSpecularGlossiness"
  ],
  "extensionsUsed": [
    "KHR_materials_pbrSpecularGlossiness"
  ],
  "images": [
    {
      "uri": "textures/Wine_diffuse.png"
    },
    {
      "uri": "textures/pasted__pasted__standardSurface3_diffuse.png"
    },
    {
      "uri": "textures/pasted__pasted__standardSurface4_diffuse.png"
    },
    {
      "uri": "textures/pasted__pasted__Label_diffuse.png"
    }
  ],
  "materials": [
    {
      "alphaMode": "BLEND",
      "doubleSided": true,
      "extensions": {
        "KHR_materials_pbrSpecularGlossiness": {
          "diffuseFactor": [
            0.0,
            0.0,
            0.0,
            0.12094400438312729
          ],
          "glossinessFactor": 1.0,
          "specularFactor": [
            0.662,
            0.662,
            0.662
          ]
        }
      },
      "name": "standardSurface2"
    },
    {
      "alphaMode": "BLEND",
      "doubleSided": true,
      "extensions": {
        "KHR_materials_pbrSpecularGlossiness": {
          "diffuseFactor": [
            1.0,
            1.0,
            1.0,
            0.0
          ],
          "diffuseTexture": {
            "index": 0
          },
          "glossinessFactor": 0.9252944913648895,
          "specularFactor": [
            0.2608310455973468,
            0.2608310455973468,
            0.2608310455973468
          ]
        }
      },
      "name": "Wine"
    },
    {
      "doubleSided": true,
      "extensions": {
        "KHR_materials_pbrSpecularGlossiness": {
          "diffuseFactor": [
            1.0,
            1.0,
            1.0,
            1.0
          ],
          "diffuseTexture": {
            "index": 1
          },
          "glossinessFactor": 1.0,
          "specularFactor": [
            0.05682911049327668,
            0.05682911049327668,
            0.05682911049327668
          ]
        }
      },
      "name": "pasted__pasted__standardSurface3"
    },
    {
      "doubleSided": true,
      "extensions": {
        "KHR_materials_pbrSpecularGlossiness": {
          "diffuseFactor": [
            0.16757301812120046,
            0.16757301812120046,
            0.16757301812120046,
            1.0
          ],
          "diffuseTexture": {
            "index": 2
          },
          "glossinessFactor": 0.6396917822191913,
          "specularFactor": [
            1.0,
            1.0,
            1.0
          ],
          "specularGlossinessTexture": {
            "index": 2
          }
        }
      },
      "name": "pasted__pasted__standardSurface4"
    },
    {
      "doubleSided": true,
      "extensions": {
        "KHR_materials_pbrSpecularGlossiness": {
          "diffuseFactor": [
            1.0,
            1.0,
            1.0,
            1.0
          ],
          "diffuseTexture": {
            "index": 3
          },
          "glossinessFactor": 0.4,
          "specularFactor": [
            0.0,
            0.0,
            0.0
          ]
        }
      },
      "name": "pasted__pasted__Label"
    }
  ],
  "meshes": [
    {
      "name": "polySurface3_standardSurface2_0",
      "primitives": [
        {
          "attributes": {
            "NORMAL": 1,
            "POSITION": 0,
            "TEXCOORD_0": 2
          },
          "indices": 3,
          "material": 0,
          "mode": 4
        }
      ]
    },
    {
      "name": "polySurface4_Wine_0",
      "primitives": [
        {
          "attributes": {
            "NORMAL": 5,
            "POSITION": 4,
            "TEXCOORD_0": 6
          },
          "indices": 7,
          "material": 1,
          "mode": 4
        }
      ]
    },
    {
      "name": "pasted__polySurface1_pasted__pasted__standardSurface3_0",
      "primitives": [
        {
          "attributes": {
            "NORMAL": 9,
            "POSITION": 8,
            "TEXCOORD_0": 10
          },
          "indices": 11,
          "material": 2,
          "mode": 4
        }
      ]
    },
    {
      "name": "pasted__polySurface2_pasted__pasted__standardSurface4_0",
      "primitives": [
        {
          "attributes": {
            "NORMAL": 13,
            "POSITION": 12,
            "TEXCOORD_0": 14
          },
          "indices": 15,
          "material": 3,
          "mode": 4
        }
      ]
    },
    {
      "name": "pasted__pasted__polySurface2_pasted__pasted__Label_0",
      "primitives": [
        {
          "attributes": {
            "NORMAL": 17,
            "POSITION": 16,
            "TEXCOORD_0": 18
          },
          "indices": 19,
          "material": 4,
          "mode": 4
        }
      ]
    }
  ],
  "nodes": [
    {
      "children": [
        1
      ],
      "matrix": [
        1.0,
        0.0,
        0.0,
        0.0,
        0.0,
        2.220446049250313e-16,
        -1.0,
        0.0,
        0.0,
        1.0,
        2.220446049250313e-16,
        0.0,
        0.0,
        0.0,
        0.0,
        1.0
      ],
      "name": "Sketchfab_model"
    },
    {
      "children": [
        2
      ],
      "matrix": [
        0.009999999776482582,
        0.0,
        0.0,
        0.0,
        0.0,
        0.0,
        0.009999999776482582,
        0.0,
        0.0,
        -0.009999999776482582,
        0.0,
        0.0,
        0.0,
        0.0,
        0.0,
        1.0
      ],
      "name": "98bb6fe0cc004758b9a688e711d189ad.fbx"
    },
    {
      "children": [
        3,
        8
      ],
      "name": "RootNode"
    },
    {
      "children": [
        4,
        6
      ],
      "name": "revolvedSurface2"
    },
    {
      "children": [
        5
      ],
      "matrix": [
        0.9947211146354675,
        0.0,
        0.0,
        0.0,
        0.0,
        0.9947211146354675,
        0.0,
        0.0,
        0.0,
        0.0,
        0.9947211146354675,
        0.0,
        -1.7250831127166748,
        0.021032022312283516,
        0.058658841997385025,
        1.0
      ],
      "name": "polySurface3"
    },
    {
      "mesh": 0,
      "name": "polySurface3_standardSurface2_0"
    },
    {
      "children": [
        7
      ],
      "matrix": [
        0.977067232131958,
        0.0,
        0.0,
        0.0,
        0.0,
        0.977067232131958,
        0.0,
        0.0,
        0.0,
        0.0,
        0.977067232131958,
        0.0,
        -1.623482584953308,
        0.27174249291419983,
        0.0755210742354393,
        1.0
      ],
      "name": "polySurface4"
    },
    {
      "mesh": 1,
      "name": "polySurface4_Wine_0"
    },
    {
      "children": [
        9
      ],
      "matrix": [
        0.2807696759914654,
        0.0,
        0.03417490858187059,
        0.0,
        0.0,
        0.28284189105033875,
        0.0,
        0.0,
        -0.03417490858187059,
        0.0,
        0.2807696759914654,
        0.0,
        74.01504516601563,
        5.945931911468506,
        -130.43788146972656,
        1.0
      ],
      "name": "group"
    },
    {
      "children": [
        10
      ],
      "matrix": [
        5.459799289703369,
        0.0,
        -1.110222984670877e-16,
        0.0,
        0.0,
        5.459799289703369,
        0.0,
        0.0,
        1.110222984670877e-16,
        0.0,
        5.459799289703369,
        0.0,
        -0.027710014954209328,
        -42.2601432800293,
        0.03741323947906494,
        1.0
      ],
      "name": "pasted__group52"
    },
    {
      "children": [
        11,
        16
      ],
      "matrix": [
        1.0,
        0.0,
        2.7755575615628914e-17,
        0.0,
        0.0,
        1.0,
        0.0,
        0.0,
        -2.7755575615628914e-17,
        0.0,
        1.0,
        0.0,
        0.006213287357240915,
        0.0,
        -1.4210854715202004e-14,
        1.0
      ],
      "name": "pasted__pasted__revolvedSurface1"
    },
    {
      "children": [
        12,
        14
      ],
      "matrix": [
        0.8018109202384949,
        0.0,
        1.3877787403144514e-17,
        0.0,
        0.0,
        0.8018109202384949,
        0.0,
        0.0,
        -1.3877787403144514e-17,
        0.0,
        0.8018109202384949,
        0.0,
        -44.805763244628906,
        2.5046474933624268,
        73.445556640625,
        1.0
      ],
      "name": "pasted__pasted__polySurface1"
    },
    {
      "children": [
        13
      ],
      "matrix": [
        0.854228874252752,
        0.0,
        0.01918418643145449,
        0.0,
        0.0,
        0.8544442653656006,
        0.0,
        0.0,
        -0.01918418643145449,
        0.0,
        0.854228874252752,
        0.0,
        6.7155256271362305,
        1.7276465892791748,
        20.671592712402344,
        1.0
      ],
      "name": "pasted__polySurface1"
    },
    {
      "mesh": 2,
      "name": "pasted__polySurface1_pasted__pasted__standardSurface3_0"
    },
    {
      "children": [
        15
      ],
      "matrix": [
        0.854228874252752,
        0.0,
        0.01918418643145449,
        0.0,
        0.0,
        0.8544442653656006,
        0.0,
        0.0,
        -0.01918418643145449,
        0.0,
        0.854228874252752,
        0.0,
        6.7155256271362305,
        1.7276465892791748,
        20.671592712402344,
        1.0
      ],
      "name": "pasted__polySurface2"
    },
    {
      "mesh": 3,
      "name": "pasted__polySurface2_pasted__pasted__standardSurface4_0"
    },
    {
      "children": [
        17
      ],
      "matrix": [
        0.684930057840815,
        0.0,
        0.015382090582713387,
        0.0,
        0.0,
        0.6851027607917786,
        0.0,
        0.0,
        -0.015382090582713387,
        0.0,
        0.684930057840815,
        0.0,
        -39.421180725097656,
        3.8898935317993164,
        90.020263671875,
        1.0
      ],
      "name": "pasted__pasted__polySurface2"
    },
    {
      "mesh": 4,
      "name": "pasted__pasted__polySurface2_pasted__pasted__Label_0"
    }
  ],
  "samplers": [
    {
      "magFilter": 9729,
      "minFilter": 9987,
      "wrapS": 10497,
      "wrapT": 10497
    }
  ],
  "scene": 0,
  "scenes": [
    {
      "name": "Sketchfab_Scene",
      "nodes": [
        0
      ]
    }
  ],
  "textures": [
    {
      "sampler": 0,
      "source": 0
    },
    {
      "sampler": 0,
      "source": 1
    },
    {
      "sampler": 0,
      "source": 2
    },
    {
      "sampler": 0,
      "source": 3
    }
  ]
}
