{
  "accessors": [
    {
      "bufferView": 2,
      "componentType": 5126,
      "count": 15635,
      "max": [
        29.321699142456055,
        75.73500061035156,
        8.275699615478516
      ],
      "min": [
        -29.321699142456055,
        -75.73500061035156,
        -8.275699615478516
      ],
      "type": "VEC3"
    },
    {
      "bufferView": 2,
      "byteOffset": 187620,
      "componentType": 5126,
      "count": 15635,
      "max": [
        1.0,
        1.0,
        1.0
      ],
      "min": [
        -1.0,
        -1.0,
        -1.0
      ],
      "type": "VEC3"
    },
    {
      "bufferView": 3,
      "componentType": 5126,
      "count": 15635,
      "max": [
        1.0,
        0.9999932050704956,
        1.0,
        1.0
      ],
      "min": [
        -1.0,
        -1.0,
        -1.0,
        1.0
      ],
      "type": "VEC4"
    },
    {
      "bufferView": 1,
      "componentType": 5126,
      "count": 15635,
      "max": [
        0.996999979019165,
        0.9976000189781189
      ],
      "min": [
        0.0038999998942017555,
        0.002400000113993883
      ],
      "type": "VEC2"
    },
    {
      "bufferView": 0,
      "componentType": 5125,
      "count": 57903,
      "type": "SCALAR"
    }
  ],
  "asset": {
    "extras": {
      "author": "Jinhong Jeong (https://sketchfab.com/JinhongJeong)",
      "license": "CC-BY-NC-4.0 (http://creativecommons.org/licenses/by-nc/4.0/)",
      "source": "https://sketchfab.com/3d-models/acoustic-guitar-e2e7a415bafd4346a481afcc0645dce3",
      "title": "Acoustic Guitar"
    },
    "generator": "Sketchfab-14.90.0",
    "version": "2.0"
  },
  "bufferViews": [
    {
      "buffer": 0,
      "byteLength": 231612,
      "name": "floatBufferViews",
      "target": 34963
    },
    {
      "buffer": 0,
      "byteLength": 125080,
      "byteOffset": 231612,
      "byteStride": 8,
      "name": "floatBufferViews",
      "target": 34962
    },
    {
      "buffer": 0,
      "byteLength": 375240,
      "byteOffset": 356692,
      "byteStride": 12,
      "name": "floatBufferViews",
      "target": 34962
    },
    {
      "buffer": 0,
      "byteLength": 250160,
      "byteOffset": 731932,
      "byteStride": 16,
      "name": "floatBufferViews",
      "target": 34962
    }
  ],
  "buffers": [
    {
      "byteLength": 982092,
      "uri": "scene.bin"
    }
  ],
  "images": [
    {
      "uri": "textures/default_baseColor.png"
    },
    {
      "uri": "textures/default_metallicRoughness.png"
    },
    {
      "uri": "textures/default_normal.png"
    }
  ],
  "materials": [
    {
      "doubleSided": true,
      "name": "default",
      "normalTexture": {
        "index": 2
      },
      "occlusionTexture": {
        "index": 1
      },
      "pbrMetallicRoughness": {
        "baseColorTexture": {
          "index": 0
        },
        "metallicRoughnessTexture": {
          "index": 1
        }
      }
    }
  ],
  "meshes": [
    {
      "name": "sdf_default_0",
      "primitives": [
        {
          "attributes": {
            "NORMAL": 1,
            "POSITION": 0,
            "TANGENT": 2,
            "TEXCOORD_0": 3
          },
          "indices": 4,
          "material": 0,
          "mode": 4
        }
      ]
    }
  ],
  "nodes": [
    {
      "children": [
        1
      ],
      "matrix": [
        -3.3480263671514863e-16,
        -0.7539085149765015,
        4.6163574522260404e-17,
        0.0,
        1.6740131835757432e-16,
        -4.6163574522260404e-17,
        -0.7539085149765015,
        0.0,
        0.7539085149765015,
        -3.348026367151487e-16,
        1.6740131835757424e-16,
        0.0,
        0.0,
        0.0,
        0.0,
        1.0
      ],
      "name": "Sketchfab_model"
    },
    {
      "children": [
        2
      ],
      "matrix": [
        0.009999999776482582,
        0.0,
        0.0,
        0.0,
        0.0,
        0.0,
        0.009999999776482582,
        0.0,
        0.0,
        -0.009999999776482582,
        0.0,
        0.0,
        0.0,
        0.0,
        0.0,
        1.0
      ],
      "name": "d9ba0556c20144ccbd59c7ddf3d26ad8.fbx"
    },
    {
      "children": [
        3
      ],
      "name": "RootNode"
    },
    {
      "children": [
        4
      ],
      "matrix": [
        1.0,
        0.0,
        0.0,
        0.0,
        0.0,
        2.384185788795179e-07,
        -0.9999999999999717,
        0.0,
        0.0,
        0.9999999999999717,
        2.384185788795179e-07,
        0.0,
        -7.884956971793144e-07,
        0.0,
        0.0,
        1.0
      ],
      "name": "sdf"
    },
    {
      "children": [
        5
      ],
      "matrix": [
        1.0,
        -0.0,
        0.0,
        0.0,
        0.0,
        0.2837861607391401,
        0.9588875924595849,
        0.0,
        -0.0,
        -0.9588875924595849,
        0.2837861607391401,
        0.0,
        7.884956971793144e-07,
        1.9071063995361328,
        73.15725708007813,
        1.0
      ],
      "name": "Object_4"
    },
    {
      "mesh": 0,
      "name": "sdf_default_0"
    }
  ],
  "samplers": [
    {
      "magFilter": 9729,
      "minFilter": 9987,
      "wrapS": 10497,
      "wrapT": 10497
    }
  ],
  "scene": 0,
  "scenes": [
    {
      "name": "Sketchfab_Scene",
      "nodes": [
        0
      ]
    }
  ],
  "textures": [
    {
      "sampler": 0,
      "source": 0
    },
    {
      "sampler": 0,
      "source": 1
    },
    {
      "sampler": 0,
      "source": 2
    }
  ]
}
