{
  "accessors": [
    {
      "bufferView": 2,
      "componentType": 5126,
      "count": 8532,
      "max": [
        2.348005771636963,
        0.002684652805328369,
        0.32417845726013184
      ],
      "min": [
        0.0,
        -2.176710605621338,
        -0.9262544512748718
      ],
      "type": "VEC3"
    },
    {
      "bufferView": 2,
      "byteOffset": 102384,
      "componentType": 5126,
      "count": 8532,
      "max": [
        1.0,
        1.0,
        1.0
      ],
      "min": [
        -1.0,
        -1.0,
        -1.0
      ],
      "type": "VEC3"
    },
    {
      "bufferView": 3,
      "componentType": 5126,
      "count": 8532,
      "max": [
        1.0,
        1.0,
        1.0,
        1.0
      ],
      "min": [
        -1.0,
        -1.0,
        -1.0,
        -1.0
      ],
      "type": "VEC4"
    },
    {
      "bufferView": 1,
      "componentType": 5126,
      "count": 8532,
      "max": [
        0.9964991211891174,
        0.979375958442688
      ],
      "min": [
        0.003500803839415312,
        0.003500764723867178
      ],
      "type": "VEC2"
    },
    {
      "bufferView": 1,
      "byteOffset": 68256,
      "componentType": 5126,
      "count": 8532,
      "max": [
        0.9964991211891174,
        0.979375958442688
      ],
      "min": [
        0.003500803839415312,
        0.003500764723867178
      ],
      "type": "VEC2"
    },
    {
      "bufferView": 1,
      "byteOffset": 136512,
      "componentType": 5126,
      "count": 8532,
      "max": [
        0.9964991211891174,
        0.979375958442688
      ],
      "min": [
        0.003500803839415312,
        0.003500764723867178
      ],
      "type": "VEC2"
    },
    {
      "bufferView": 0,
      "componentType": 5125,
      "count": 36945,
      "type": "SCALAR"
    }
  ],
  "asset": {
    "extras": {
      "author": "Glowbox 3D (https://sketchfab.com/glowbox3d)",
      "license": "CC-BY-4.0 (http://creativecommons.org/licenses/by/4.0/)",
      "source": "https://sketchfab.com/3d-models/blue-kitchen-marble-counter-sink-02e3dc8586684dc5805ab8d9cbea3fff",
      "title": "Blue Kitchen Marble Counter & Sink 🚰"
    },
    "generator": "Sketchfab-15.55.0",
    "version": "2.0"
  },
  "bufferViews": [
    {
      "buffer": 0,
      "byteLength": 147780,
      "name": "floatBufferViews",
      "target": 34963
    },
    {
      "buffer": 0,
      "byteLength": 204768,
      "byteOffset": 147780,
      "byteStride": 8,
      "name": "floatBufferViews",
      "target": 34962
    },
    {
      "buffer": 0,
      "byteLength": 204768,
      "byteOffset": 352548,
      "byteStride": 12,
      "name": "floatBufferViews",
      "target": 34962
    },
    {
      "buffer": 0,
      "byteLength": 136512,
      "byteOffset": 557316,
      "byteStride": 16,
      "name": "floatBufferViews",
      "target": 34962
    }
  ],
  "buffers": [
    {
      "byteLength": 693828,
      "uri": "scene.bin"
    }
  ],
  "images": [
    {
      "uri": "textures/SM_KitchenCounters_baseColor.png"
    },
    {
      "uri": "textures/SM_KitchenCounters_metallicRoughness.png"
    },
    {
      "uri": "textures/SM_KitchenCounters_normal.png"
    }
  ],
  "materials": [
    {
      "doubleSided": true,
      "name": "SM_KitchenCounters",
      "normalTexture": {
        "index": 2,
        "texCoord": 1
      },
      "pbrMetallicRoughness": {
        "baseColorTexture": {
          "index": 0
        },
        "metallicRoughnessTexture": {
          "index": 1
        }
      }
    }
  ],
  "meshes": [
    {
      "name": "Cylinder_SM_KitchenCounters_0",
      "primitives": [
        {
          "attributes": {
            "NORMAL": 1,
            "POSITION": 0,
            "TANGENT": 2,
            "TEXCOORD_0": 3,
            "TEXCOORD_1": 4,
            "TEXCOORD_2": 5
          },
          "indices": 6,
          "material": 0,
          "mode": 4
        }
      ]
    }
  ],
  "nodes": [
    {
      "children": [
        1
      ],
      "matrix": [
        1.0,
        0.0,
        0.0,
        0.0,
        0.0,
        2.220446049250313e-16,
        -1.0,
        0.0,
        0.0,
        1.0,
        2.220446049250313e-16,
        0.0,
        0.0,
        0.0,
        0.0,
        1.0
      ],
      "name": "Sketchfab_model"
    },
    {
      "children": [
        2
      ],
      "matrix": [
        0.009999999776482582,
        0.0,
        0.0,
        0.0,
        0.0,
        0.0,
        0.009999999776482582,
        0.0,
        0.0,
        -0.009999999776482582,
        0.0,
        0.0,
        0.0,
        0.0,
        0.0,
        1.0
      ],
      "name": "2c12a3dc45f6408c92f504841f0c9c53.fbx"
    },
    {
      "children": [
        3
      ],
      "name": "RootNode"
    },
    {
      "children": [
        4
      ],
      "matrix": [
        100.0,
        0.0,
        0.0,
        0.0,
        -0.0,
        -1.629206793918314e-05,
        -99.99999999999868,
        0.0,
        0.0,
        99.99999999999868,
        -1.629206793918314e-05,
        0.0,
        -169.83680725097656,
        96.56269836425781,
        -160.00732421875,
        1.0
      ],
      "name": "Cylinder"
    },
    {
      "mesh": 0,
      "name": "Cylinder_SM_KitchenCounters_0"
    }
  ],
  "samplers": [
    {
      "magFilter": 9729,
      "minFilter": 9987,
      "wrapS": 10497,
      "wrapT": 10497
    }
  ],
  "scene": 0,
  "scenes": [
    {
      "name": "Sketchfab_Scene",
      "nodes": [
        0
      ]
    }
  ],
  "textures": [
    {
      "sampler": 0,
      "source": 0
    },
    {
      "sampler": 0,
      "source": 1
    },
    {
      "sampler": 0,
      "source": 2
    }
  ]
}
